<!-- Generated by IcoMoon.io -->
<svg version="1.1" xmlns="http://www.w3.org/2000/svg"  viewBox="0 0 1092 1024">
<g id="icomoon-ignore">
</g>
<path d="M515.944 57.219c12.807-24.274 47.571-24.274 60.378 0l128.907 244.318c4.936 9.361 13.94 15.901 24.364 17.706l272.2 47.096c27.040 4.68 37.786 37.742 18.657 57.423l-192.532 198.093c-7.373 7.59-10.813 18.172-9.305 28.648l39.322 273.424c3.905 27.163-24.221 47.602-48.845 35.492l-247.895-121.89c-9.497-4.669-20.625-4.669-30.122 0l-247.892 121.89c-24.629 12.111-52.754-8.329-48.847-35.492l39.321-273.424c1.507-10.476-1.932-21.058-9.308-28.648l-192.527-198.093c-19.128-19.681-8.385-52.744 18.658-57.423l272.194-47.096c10.429-1.805 19.431-8.345 24.37-17.706l128.904-244.318z"></path>
</svg>
